<svg width="16" height="16" viewBox="0 0 16 16" fill="none" xmlns="http://www.w3.org/2000/svg">
<path fill-rule="evenodd" clip-rule="evenodd" d="M8 15C11.866 15 15 11.866 15 8C15 4.134 11.866 1 8 1C4.134 1 1 4.134 1 8C1 11.866 4.134 15 8 15ZM10 6C10 7.10458 9.10458 8 8.00002 8C6.89545 8 6.00002 7.10458 6.00002 6C6.00002 4.89542 6.89545 4 8.00002 4C9.10458 4 10 4.89542 10 6ZM3.57997 12.0576C3.28926 11.7411 3.28926 11.2589 3.57997 10.9424C4.67668 9.74841 6.25095 9 8 9C9.74905 9 11.3233 9.74841 12.42 10.9424C12.7107 11.2589 12.7107 11.7411 12.42 12.0576C11.3233 13.2516 9.74905 14 8 14C6.25095 14 4.67668 13.2516 3.57997 12.0576Z" fill="#3C3C43"/>
</svg>
