<svg width="186" height="48" viewBox="0 0 186 48" fill="none" xmlns="http://www.w3.org/2000/svg">
<path d="M14.975 24.2027H22.5777V16.386H14.975V6.71652H6.10519V16.386H0V24.2027H5.99V36.4198C5.99 41.4572 7.60269 47.7105 17.1061 47.7105C18.1428 47.7105 20.389 47.6526 22.4625 47.0157V39.6622C20.8498 39.8359 20.6194 39.8938 19.2947 39.8938C16.2997 39.8938 14.975 38.3305 14.975 35.9566V24.2027Z" fill="#292929"/>
<path d="M36.4107 28.3715C36.7562 26.345 39.0601 22.9867 43.0918 22.9867C47.5843 22.9867 49.485 26.1134 49.6578 28.3715H36.4107ZM58.5276 34.3353C58.6428 33.2931 58.6428 32.193 58.6428 31.0929C58.6428 21.9445 52.48 15.6333 43.3222 15.6333C34.4524 15.6333 27.0225 22.8709 27.0225 31.7877C27.0225 41.3993 34.5676 48 43.8982 48C49.9458 48 55.6478 44.8154 57.6637 38.8516L50.2913 36.304C49.2546 38.8516 46.3748 40.415 43.783 40.415C40.0392 40.415 36.7562 38.2147 36.1803 34.3353H58.5276Z" fill="#292929"/>
<path d="M76.0341 48C84.4432 48 88.5325 43.0205 88.5325 37.7515C88.5325 30.6297 82.9457 28.5452 77.0133 27.8504C73.7303 27.503 72.2328 26.9819 72.2328 25.1291C72.2328 23.7394 73.5575 22.5814 75.7461 22.5814C78.338 22.5814 79.7779 24.1448 80.2386 26.2292L88.0141 24.2606C87.3806 20.7865 83.8672 15.6333 75.8613 15.6333C69.353 15.6333 63.7085 19.918 63.7085 25.5344C63.7085 32.5404 69.0074 34.509 74.8246 35.3197C78.05 35.7829 79.7203 36.3619 79.7203 38.3305C79.7203 39.4885 78.6835 40.994 76.0341 40.994C73.0391 40.994 71.3112 39.0253 70.9081 36.7672L63.075 38.8516C63.5934 42.152 66.9915 48 76.0341 48Z" fill="#292929"/>
<path d="M106.656 24.2027H114.259V16.386H106.656V6.71652H97.7866V16.386H91.6814V24.2027H97.6714V36.4198C97.6714 41.4572 99.2841 47.7105 108.787 47.7105C109.824 47.7105 112.07 47.6526 114.144 47.0157V39.6622C112.531 39.8359 112.301 39.8938 110.976 39.8938C107.981 39.8938 106.656 38.3305 106.656 35.9566V24.2027Z" fill="#292929"/>
<path d="M119.904 5.61641C119.904 8.68516 122.438 11.1749 125.433 11.1749C128.601 11.1749 131.078 8.68516 131.078 5.61641C131.078 2.48974 128.601 0 125.433 0C122.438 0 119.904 2.48974 119.904 5.61641ZM120.998 16.386H130.041V47.3052H120.998V16.386Z" fill="#292929"/>
<path d="M136.421 31.9035C136.421 41.2256 143.851 48 153.182 48C162.455 48 170 41.0519 170 31.7298C170 22.5235 162.57 15.6912 153.297 15.6912C143.967 15.6912 136.421 22.6972 136.421 31.9035ZM145.637 31.7877C145.637 27.1556 148.977 23.9132 153.182 23.9132C157.386 23.9132 160.785 27.1556 160.785 31.7877C160.785 36.4777 157.444 39.7201 153.24 39.7201C149.035 39.7201 145.637 36.4777 145.637 31.7877Z" fill="#292929"/>
<circle cx="180" cy="42" r="6" fill="#62BD84"/>
</svg>
